HIERARCHY
ROOT joint_Root
{
  OFFSET 0 0 0
  CHANNELS 6 Xposition Yposition Zposition Zrotation Xrotation Yrotation
  JOINT Hips
  {
    OFFSET 0 93.9241 -3
    CHANNELS 6 Xposition Yposition Zposition Zrotation Xrotation Yrotation
    JOINT Spine
    {
      OFFSET 15.7357 0 0
      CHANNELS 6 Xposition Yposition Zposition Zrotation Xrotation Yrotation
      JOINT Chest
      {
        OFFSET 8.98455 -0.406207 0
        CHANNELS 6 Xposition Yposition Zposition Zrotation Xrotation Yrotation
        JOINT Neck
        {
          OFFSET 16.3773 0 0
          CHANNELS 6 Xposition Yposition Zposition Zrotation Xrotation Yrotation
          JOINT Head
          {
            OFFSET 6.45672 0 0
            CHANNELS 6 Xposition Yposition Zposition Zrotation Xrotation Yrotation
            End Site
            {
              OFFSET 0 0 0
            }
          }
        }
        JOINT Shoulder_L
        {
          OFFSET 12.9942 -0.242716 4.98039
          CHANNELS 6 Xposition Yposition Zposition Zrotation Xrotation Yrotation
          JOINT UpperArm_L
          {
            OFFSET 5.34809 0 0
            CHANNELS 6 Xposition Yposition Zposition Zrotation Xrotation Yrotation
            JOINT LowerArm_L
            {
              OFFSET 24.3286 1.87007e-05 0
              CHANNELS 6 Xposition Yposition Zposition Zrotation Xrotation Yrotation
              JOINT Hand_L
              {
                OFFSET 22.2916 0 0
                CHANNELS 6 Xposition Yposition Zposition Zrotation Xrotation Yrotation
                End Site
                {
                  OFFSET 0 0 0
                }
              }
            }
          }
        }
        JOINT Shoulder_R
        {
          OFFSET 12.9945 -0.242716 -4.98039
          CHANNELS 6 Xposition Yposition Zposition Zrotation Xrotation Yrotation
          JOINT UpperArm_R
          {
            OFFSET -5.34813 0 0
            CHANNELS 6 Xposition Yposition Zposition Zrotation Xrotation Yrotation
            JOINT LowerArm_R
            {
              OFFSET -24.3289 0.000322201 0
              CHANNELS 6 Xposition Yposition Zposition Zrotation Xrotation Yrotation
              JOINT Hand_R
              {
                OFFSET -22.2915 -0.000108084 0
                CHANNELS 6 Xposition Yposition Zposition Zrotation Xrotation Yrotation
                End Site
                {
                  OFFSET 0 0 0
                }
              }
            }
          }
        }
      }
    }
    JOINT UpperLeg_L
    {
      OFFSET -2.19248 -6.46944 0
      CHANNELS 6 Xposition Yposition Zposition Zrotation Xrotation Yrotation
      JOINT LowerLeg_L
      {
        OFFSET 39.0811 0 -1.23785e-05
        CHANNELS 6 Xposition Yposition Zposition Zrotation Xrotation Yrotation
        JOINT Foot_L
        {
          OFFSET 40.9854 0 -1.26872e-05
          CHANNELS 6 Xposition Yposition Zposition Zrotation Xrotation Yrotation
          JOINT Toes_L
          {
            OFFSET 11.7543 0 0
            CHANNELS 6 Xposition Yposition Zposition Zrotation Xrotation Yrotation
            End Site
            {
              OFFSET 0 0 0
            }
          }
        }
      }
    }
    JOINT UpperLeg_R
    {
      OFFSET -2.19251 6.46944 0
      CHANNELS 6 Xposition Yposition Zposition Zrotation Xrotation Yrotation
      JOINT LowerLeg_R
      {
        OFFSET -39.0811 -0.00228153 -0.0401928
        CHANNELS 6 Xposition Yposition Zposition Zrotation Xrotation Yrotation
        JOINT Foot_R
        {
          OFFSET -40.9854 0 0
          CHANNELS 6 Xposition Yposition Zposition Zrotation Xrotation Yrotation
          JOINT Toes_R
          {
            OFFSET -11.7543 0 0
            CHANNELS 6 Xposition Yposition Zposition Zrotation Xrotation Yrotation
            End Site
            {
              OFFSET 0 0 0
            }
          }
        }
      }
    }
  }
}
MOTION
Frames:	8
Frame Time:	0.0333333
0 0 0 0 0 -0 -3.48769 91.6801 16.0337 90.0669 81.4785 1.73811 15.7357 5.1072e-06 -5.51765e-07 30.7631 85.4807 -31.1626 8.98455 -0.406207 -4.3199e-07 -3.18315 -7.72507 -1.01503 16.3773 -1.3905e-06 -6.99897e-07 -5.57332 -25.1535 -0.612225 6.45672 -1.25837e-06 -1.02172e-07 2.22764 -33.0339 3.75934 12.9942 -0.242716 4.98039 -90.1087 2.42144 -102.429 5.34809 -7.22636e-06 -6.2814e-07 -78.6485 -7.11979 -3.23321 24.3286 1.87007e-05 4.90208e-06 1.28641 8.22295 -8.92229 22.2916 -9.88446e-07 4.63217e-06 15.742 5.02398 6.80543 12.9945 -0.242716 -4.98039 88.5608 5.29081 -89.7597 -5.34813 -1.25947e-06 -3.79883e-06 -71.764 -5.19692 5.74899 -24.3289 0.000322201 -8.65921e-06 -0.755228 -2.65507 -15.8789 -22.2915 -0.000108084 -4.47941e-06 15.021 5.35542 -1.54139 -2.19248 -6.46944 -1.22534e-07 179.457 -7.38992 -24.9349 39.0811 -6.73843e-06 -1.23785e-05 -0.247271 0.123769 62.9151 40.9854 -6.48686e-06 -1.26872e-05 7.84136 -14.0076 -48.8001 11.7543 -2.30145e-07 3.05095e-06 0.407687 -0.490673 -21.2265 -2.19251 6.46944 -1.45247e-06 -173.982 3.38496 173.258 -39.0811 -0.00228153 -0.0401928 0.0581528 -0.0786894 23.5845 -40.9854 7.72618e-06 5.99936e-06 4.33153 -10.2884 -65.8152 -11.7543 -5.6619e-06 -5.58687e-06 0.0101673 -0.0105198 -16.6552 
0 0 0 0 0 -0 -0.60696 91.9066 16.0843 94.3224 80.9342 -2.90647 15.7357 5.1072e-06 -5.51765e-07 34.0146 85.7899 -34.6312 8.98455 -0.406207 -4.3199e-07 -3.10306 -6.91792 -1.42207 16.3773 -1.3905e-06 -6.99897e-07 -5.59203 -24.9474 -0.698263 6.45672 -1.25837e-06 -1.02172e-07 2.04723 -33.5359 3.62619 12.9942 -0.242716 4.98039 -90.1258 2.26848 -101.826 5.34809 -7.22636e-06 -6.2814e-07 -77.0974 -9.68581 1.78824 24.3286 1.87007e-05 4.90208e-06 1.00528 7.71411 -7.44706 22.2916 -9.88446e-07 4.63217e-06 14.9699 5.01138 7.07566 12.9945 -0.242716 -4.98039 88.7702 4.74683 -90.4574 -5.34813 -1.25947e-06 -3.79883e-06 -70.3053 -1.84393 0.105196 -24.3289 0.000322201 -8.65921e-06 -0.164285 -0.48549 -18.6313 -22.2915 -0.000108084 -4.47941e-06 15.7225 5.35802 -1.6177 -2.19248 -6.46944 -1.22534e-07 178.517 -7.11845 -27.4842 39.0811 -6.73843e-06 -1.23785e-05 -0.193878 0.130964 54.6675 40.9854 -6.48686e-06 -1.26872e-05 7.52083 -13.4454 -50.4044 11.7543 -2.30145e-07 3.05095e-06 0.413949 -0.498874 -21.3019 -2.19251 6.46944 -1.45247e-06 -175.224 4.72955 176.144 -39.0811 -0.00228153 -0.0401928 0.0389436 -0.0488257 21.1506 -40.9854 7.72618e-06 5.99936e-06 4.0966 -8.57827 -66.7747 -11.7543 -5.6619e-06 -5.58687e-06 0.00153119 -0.00159532 -16.5861 
0 0 0 0 0 -0 2.20893 91.9677 16.1812 95.0859 80.209 -4.0907 15.7357 5.1072e-06 -5.51765e-07 37.7081 86.0133 -38.3597 8.98455 -0.406207 -4.3199e-07 -2.93218 -6.24479 -1.46433 16.3773 -1.3905e-06 -6.99897e-07 -5.62047 -24.6919 -0.61518 6.45672 -1.25837e-06 -1.02172e-07 1.57382 -33.7795 3.40649 12.9942 -0.242716 4.98039 -90.1395 2.0992 -101.198 5.34809 -7.22636e-06 -6.2814e-07 -74.9162 -11.669 6.95281 24.3286 1.87007e-05 4.90208e-06 0.772464 7.28507 -6.0689 22.2916 -9.88446e-07 4.63217e-06 13.6614 5.02999 6.6739 12.9945 -0.242716 -4.98039 88.9302 4.23824 -90.8197 -5.34813 -1.25947e-06 -3.79883e-06 -67.9772 0.461887 -5.61442 -24.3289 0.000322201 -8.65921e-06 0.323275 0.834267 -21.216 -22.2915 -0.000108084 -4.47941e-06 16.6482 5.35489 -1.5242 -2.19248 -6.46944 -1.22534e-07 178.205 -7.34535 -27.7971 39.0811 -6.73843e-06 -1.23785e-05 -0.118065 0.123472 42.1549 40.9854 -6.48686e-06 -1.26872e-05 7.0748 -11.2206 -51.5104 11.7543 -2.30145e-07 3.05095e-06 0.415688 -0.501108 -21.3222 -2.19251 6.46944 -1.45247e-06 -175.728 4.09189 179.06 -39.0811 -0.00228153 -0.0401928 0.0104033 0.0176959 18.5098 -40.9854 7.72618e-06 5.99936e-06 3.59708 -8.78686 -67.4212 -11.7543 -5.6619e-06 -5.58687e-06 0.0372133 -0.0386956 -16.8728 
0 0 0 0 0 -0 5.18478 91.8098 16.2844 93.2604 79.3327 -2.49107 15.7357 5.1072e-06 -5.51765e-07 41.9453 86.1534 -42.4603 8.98455 -0.406207 -4.3199e-07 -2.65459 -5.6732 -1.16223 16.3773 -1.3905e-06 -6.99897e-07 -5.62178 -24.4282 -0.456779 6.45672 -1.25837e-06 -1.02172e-07 1.00897 -33.7391 3.07711 12.9942 -0.242716 4.98039 -90.1555 1.99314 -100.54 5.34809 -7.22636e-06 -6.2814e-07 -72.3284 -13.617 12.2381 24.3286 1.87007e-05 4.90208e-06 0.577129 6.88408 -4.80337 22.2916 -9.88446e-07 4.63217e-06 13.0051 5.05107 6.21381 12.9945 -0.242716 -4.98039 89.1104 3.56832 -90.992 -5.34813 -1.25947e-06 -3.79883e-06 -65.5841 1.55243 -11.0096 -24.3289 0.000322201 -8.65921e-06 0.907286 2.06637 -23.7295 -22.2915 -0.000108084 -4.47941e-06 17.8969 5.34832 -1.32687 -2.19248 -6.46944 -1.22534e-07 178.42 -8.00114 -25.0915 39.0811 -6.73843e-06 -1.23785e-05 -0.0562429 0.100135 24.8168 40.9854 -6.48686e-06 -1.26872e-05 5.81 -8.57851 -51.579 11.7543 -2.30145e-07 3.05095e-06 0.418093 -0.504279 -21.3514 -2.19251 6.46944 -1.45247e-06 -175.75 2.77281 -177.701 -39.0811 -0.00228153 -0.0401928 -0.0169152 0.104747 15.9515 -40.9854 7.72618e-06 5.99936e-06 2.98338 -9.47393 -68.2084 -11.7543 -5.6619e-06 -5.58687e-06 0.0615828 -0.0642615 -17.0692 
0 0 0 0 0 -0 8.50897 91.2812 16.4074 89.5249 78.2986 1.29922 15.7357 5.1072e-06 -5.51765e-07 46.9978 86.2533 -47.1906 8.98455 -0.406207 -4.3199e-07 -2.29789 -5.09235 -0.487928 16.3773 -1.3905e-06 -6.99897e-07 -5.49508 -24.0633 -0.376399 6.45672 -1.25837e-06 -1.02172e-07 0.392835 -33.6332 2.66341 12.9942 -0.242716 4.98039 -90.162 1.82405 -99.9247 5.34809 -7.22636e-06 -6.2814e-07 -69.6013 -15.7038 17.3644 24.3286 1.87007e-05 4.90208e-06 0.429356 7.13486 -3.45262 22.2916 -9.88446e-07 4.63217e-06 13.4306 5.05205 6.19036 12.9945 -0.242716 -4.98039 89.3701 2.53794 -91.0553 -5.34813 -1.25947e-06 -3.79883e-06 -63.9338 1.39984 -15.66 -24.3289 0.000322201 -8.65921e-06 1.06885 2.18621 -26.0898 -22.2915 -0.000108084 -4.47941e-06 19.3498 5.36311 -1.76789 -2.19248 -6.46944 -1.22534e-07 178.809 -9.42248 -21.1113 39.0811 -6.73843e-06 -1.23785e-05 -0.0106026 0.0591083 6.9925 40.9854 -6.48686e-06 -1.26872e-05 4.81218 -5.04691 -52.4553 11.7543 -2.30145e-07 3.05095e-06 0.412216 -0.496586 -21.2809 -2.19251 6.46944 -1.45247e-06 -175.102 1.58598 -174.857 -39.0811 -0.00228153 -0.0401928 0.03202 -0.0720771 15.2839 -40.9854 7.72618e-06 5.99936e-06 4.55373 -10.273 -69.7985 -11.7543 -5.6619e-06 -5.58687e-06 0.122216 -0.128648 -17.5617 
0 0 0 0 0 -0 12.2571 90.5539 16.4223 87.2129 77.4715 3.88618 15.7357 5.1072e-06 -5.51765e-07 50.9732 86.2673 -50.9075 8.98455 -0.406207 -4.3199e-07 -1.96608 -4.70518 0.0507041 16.3773 -1.3905e-06 -6.99897e-07 -5.20313 -23.745 -0.315178 6.45672 -1.25837e-06 -1.02172e-07 -0.139427 -33.5372 2.36882 12.9942 -0.242716 4.98039 -90.179 1.79675 -99.3103 5.34809 -7.22636e-06 -6.2814e-07 -66.6256 -17.4248 21.9869 24.3286 1.87007e-05 4.90208e-06 0.246935 7.97985 -1.77914 22.2916 -9.88446e-07 4.63217e-06 14.1117 5.04166 6.42036 12.9945 -0.242716 -4.98039 89.5351 1.84924 -90.8855 -5.34813 -1.25947e-06 -3.79883e-06 -62.6191 0.912906 -19.635 -24.3289 0.000322201 -8.65921e-06 0.477964 0.928103 -27.3034 -22.2915 -0.000108084 -4.47941e-06 21.1889 5.41256 -3.3448 -2.19248 -6.46944 -1.22534e-07 179.474 -9.10153 -20.9177 39.0811 -6.73843e-06 -1.23785e-05 0.000235244 -0.0203754 0.0750242 40.9854 -6.48686e-06 -1.26872e-05 1.80791 -3.17597 -56.7605 11.7543 -2.30145e-07 3.05095e-06 0.389215 -0.466598 -21.0057 -2.19251 6.46944 -1.45247e-06 -175.502 1.92273 -173.506 -39.0811 -0.00228153 -0.0401928 0.0564665 -0.121803 18.2141 -40.9854 7.72618e-06 5.99936e-06 3.52385 -8.98159 -71.589 -11.7543 -5.6619e-06 -5.58687e-06 0.169489 -0.390333 -18.8413 
0 0 0 0 0 -0 16.3676 89.962 16.2239 87.8281 76.9549 3.2819 15.7357 5.1072e-06 -5.51765e-07 51.4747 86.3522 -51.3512 8.98455 -0.406207 -4.3199e-07 -2.05576 -4.55355 0.16544 16.3773 -1.3905e-06 -6.99897e-07 -4.95722 -23.4607 -0.178003 6.45672 -1.25837e-06 -1.02172e-07 -0.268679 -33.3678 2.04135 12.9942 -0.242716 4.98039 -90.2097 1.93676 -98.8193 5.34809 -7.22636e-06 -6.2814e-07 -63.1074 -20.0209 26.2703 24.3286 1.87007e-05 4.90208e-06 -0.00201796 8.38863 0.000242736 22.2916 -9.88446e-07 4.63217e-06 15.1617 5.03957 6.47293 12.9945 -0.242716 -4.98039 89.5188 1.88378 -90.6666 -5.34813 -1.25947e-06 -3.79883e-06 -61.5722 -0.296821 -22.3925 -24.3289 0.000322201 -8.65921e-06 0.196994 0.369633 -28.1845 -22.2915 -0.000108084 -4.47941e-06 21.9468 5.43818 -4.2226 -2.19248 -6.46944 -1.22534e-07 179.681 -7.42925 -22.19 39.0811 -6.73843e-06 -1.23785e-05 -0.00174986 -0.0344597 0.0568531 40.9854 -6.48686e-06 -1.26872e-05 0.927619 -3.51562 -60.707 11.7543 -2.30145e-07 3.05095e-06 0.395601 -0.474881 -21.0818 -2.19251 6.46944 -1.45247e-06 -176.971 2.44641 -172.611 -39.0811 -0.00228153 -0.0401928 0.0677904 -0.120014 21.292 -40.9854 7.72618e-06 5.99936e-06 2.09005 -7.23966 -71.477 -11.7543 -5.6619e-06 -5.58687e-06 -0.507336 -1.63255 -22.583 
0 0 0 0 0 -0 20.9351 89.4364 16.0065 88.5474 77.0041 2.2829 15.7357 5.1072e-06 -5.51765e-07 49.0819 86.5411 -48.8956 8.98455 -0.406207 -4.3199e-07 -2.53446 -4.54632 0.272155 16.3773 -1.3905e-06 -6.99897e-07 -4.76842 -23.3817 -0.151414 6.45672 -1.25837e-06 -1.02172e-07 -0.0410322 -33.3496 1.82044 12.9942 -0.242716 4.98039 -90.2029 1.80298 -98.5797 5.34809 -7.22636e-06 -6.2814e-07 -60.5937 -21.8099 29.4336 24.3286 1.87007e-05 4.90208e-06 -0.155006 9.80056 0.0145257 22.2916 -9.88446e-07 4.63217e-06 16.3555 5.04791 6.93887 12.9945 -0.242716 -4.98039 89.5502 1.75918 -90.6537 -5.34813 -1.25947e-06 -3.79883e-06 -61.413 -1.89276 -23.2598 -24.3289 0.000322201 -8.65921e-06 -0.223304 -0.403272 -28.8695 -22.2915 -0.000108084 -4.47941e-06 22.6948 5.45735 -4.89965 -2.19248 -6.46944 -1.22534e-07 177.467 -10.2915 -21.6819 39.0811 -6.73843e-06 -1.23785e-05 -0.00446452 -0.0176159 0.125759 40.9854 -6.48686e-06 -1.26872e-05 2.19405 -1.46929 -56.5513 11.7543 -2.30145e-07 3.05095e-06 0.393184 -0.471734 -21.0528 -2.19251 6.46944 -1.45247e-06 -178.193 2.20405 -171.903 -39.0811 -0.00228153 -0.0401928 0.0583058 -0.0745217 24.0649 -40.9854 7.72618e-06 5.99936e-06 1.34269 -6.82437 -68.7401 -11.7543 -5.6619e-06 -5.58687e-06 -0.574607 -2.66969 -29.7548 
